<svg xmlns="http://www.w3.org/2000/svg" id="Layer_3" data-name="Layer 3" viewBox="0 0 64 64"><path d="M11,21A10,10,0,1,0,1,11,10.011,10.011,0,0,0,11,21ZM11,3a8,8,0,1,1-8,8A8.009,8.009,0,0,1,11,3Z"/><path d="M9,13H7a3,3,0,0,0,3,3v1h2V16a3,3,0,0,0,0-6V8a1,1,0,0,1,1,1h2a3,3,0,0,0-3-3V5H10V6a3,3,0,0,0,0,6v2A1,1,0,0,1,9,13ZM9,9a1,1,0,0,1,1-1v2A1,1,0,0,1,9,9Zm3,3a1,1,0,0,1,0,2Z"/><path d="M53,1A10,10,0,1,0,63,11,10.011,10.011,0,0,0,53,1Zm0,18a8,8,0,1,1,8-8A8.009,8.009,0,0,1,53,19Z"/><path d="M55,9h2a3,3,0,0,0-3-3V5H52V6a3,3,0,0,0,0,6v2a1,1,0,0,1-1-1H49a3,3,0,0,0,3,3v1h2V16a3,3,0,0,0,0-6V8A1,1,0,0,1,55,9Zm0,4a1,1,0,0,1-1,1V12A1,1,0,0,1,55,13Zm-3-3a1,1,0,0,1,0-2Z"/><path d="M62,55H2a1,1,0,0,0-1,1v6a1,1,0,0,0,1,1H62a1,1,0,0,0,1-1V56A1,1,0,0,0,62,55Zm-1,6H3V57H61Z"/><path d="M15,23H7a1,1,0,0,0-1,1V43H3a1,1,0,0,0-.707,1.707l8,8a1,1,0,0,0,1.414,0l8-8A1,1,0,0,0,19,43H16V24A1,1,0,0,0,15,23Zm1.586,22L11,50.586,5.414,45H7a1,1,0,0,0,1-1V25h6V44a1,1,0,0,0,1,1Z"/><path d="M36,7H28a1,1,0,0,0-1,1V43H24a1,1,0,0,0-.707,1.707l8,8a1,1,0,0,0,1.414,0l8-8A1,1,0,0,0,40,43H37V8A1,1,0,0,0,36,7Zm1.586,38L32,50.586,26.414,45H28a1,1,0,0,0,1-1V9h6V44a1,1,0,0,0,1,1Z"/><path d="M57,23H49a1,1,0,0,0-1,1V43H45a1,1,0,0,0-.707,1.707l8,8a1,1,0,0,0,1.414,0l8-8A1,1,0,0,0,61,43H58V24A1,1,0,0,0,57,23Zm1.586,22L53,50.586,47.414,45H49a1,1,0,0,0,1-1V25h6V44a1,1,0,0,0,1,1Z"/></svg>
