<svg viewBox="0 0 496.00303 496" xmlns="http://www.w3.org/2000/svg"><path d="m480 120c0-66.167969-53.832031-120-120-120-35.589844 0-69.382812 16.007812-92.101562 43.226562-14.410157-12.3125-32.871094-19.226562-51.898438-19.226562-44.109375 0-80 35.890625-80 80 0 3.761719.289062 7.578125.867188 11.433594-33.386719 10.054687-56.867188 41.0625-56.867188 76.566406 0 44.113281 35.890625 80 80 80 15.328125 0 30.195312-4.414062 42.984375-12.597656 8.199219 26.167968 32.457031 44.597656 61.015625 44.597656 35.289062 0 64-28.710938 64-64 0-1.46875-.046875-2.933594-.152344-4.398438 10.449219 2.921876 21.21875 4.398438 32.152344 4.398438 66.167969 0 120-53.832031 120-120zm-120 104c-13.566406 0-26.824219-2.613281-39.40625-7.78125-2.863281-1.183594-6.144531-.59375-8.425781 1.488281-2.285157 2.085938-3.167969 5.292969-2.261719 8.246094 1.390625 4.558594 2.09375 9.289063 2.09375 14.046875 0 26.472656-21.527344 48-48 48-24.902344 0-45.4375-18.671875-47.765625-43.4375-.289063-3.015625-2.25-5.609375-5.074219-6.714844-.933594-.359375-1.917968-.535156-2.894531-.535156-1.953125 0-3.871094.722656-5.367187 2.074219-11.824219 10.71875-27.058594 16.613281-42.898438 16.613281-35.285156 0-64-28.710938-64-64 0-30.558594 21.753906-56.964844 51.722656-62.789062 2.160156-.417969 4.039063-1.707032 5.222656-3.546876 1.175782-1.847656 1.542969-4.101562 1.015626-6.230468-1.296876-5.238282-1.960938-10.433594-1.960938-15.433594 0-35.285156 28.714844-64 64-64 17.96875 0 34.632812 7.3125 46.921875 20.585938 1.632813 1.777343 3.910156 2.65625 6.382813 2.550781 2.402343-.160157 4.609374-1.382813 6-3.34375 19.535156-27.414063 51.191406-43.792969 84.695312-43.792969 57.34375 0 104 46.65625 104 104s-46.65625 104-104 104zm0 0"/><path d="m288 88c-22.054688 0-40 17.945312-40 40 0 22.058594 17.945312 40 40 40 22.058594 0 40-17.941406 40-40 0-22.054688-17.941406-40-40-40zm0 64c-13.230469 0-24-10.765625-24-24 0-13.230469 10.769531-24 24-24 13.234375 0 24 10.769531 24 24 0 13.234375-10.765625 24-24 24zm0 0"/><path d="m208 104c6.882812 0 13.449219 2.960938 18 8.128906l12-10.574218c-7.589844-8.617188-18.527344-13.554688-30-13.554688-22.054688 0-40 17.945312-40 40 0 22.058594 17.945312 40 40 40 11.472656 0 22.410156-4.933594 30-13.542969l-12-10.574219c-4.550781 5.160157-11.117188 8.117188-18 8.117188-13.230469 0-24-10.765625-24-24 0-13.230469 10.769531-24 24-24zm0 0"/><path d="m368 144h-32c-4.414062 0-8 3.578125-8 8v16h16v-8h16v4l-28.796875 21.601562c-2.019531 1.511719-3.203125 3.886719-3.203125 6.398438v8c0 4.425781 3.585938 8 8 8h40v-16h-26.664062l23.472656-17.597656c2.015625-1.503906 3.199218-3.878906 3.199218-6.402344v-16c-.007812-4.421875-3.589843-8-8.007812-8zm0 0"/><path d="m208 312c-35.285156 0-64 28.714844-64 64 0 35.289062 28.714844 64 64 64 35.289062 0 64-28.710938 64-64 0-35.285156-28.710938-64-64-64zm0 112c-26.46875 0-48-21.527344-48-48 0-26.46875 21.53125-48 48-48 26.472656 0 48 21.53125 48 48 0 26.472656-21.527344 48-48 48zm0 0"/><path d="m312 416c-22.054688 0-40 17.945312-40 40 0 22.058594 17.945312 40 40 40 22.058594 0 40-17.941406 40-40 0-22.054688-17.941406-40-40-40zm0 64c-13.230469 0-24-10.765625-24-24 0-13.230469 10.769531-24 24-24 13.234375 0 24 10.769531 24 24 0 13.234375-10.765625 24-24 24zm0 0"/><path d="m493.65625 314.34375-56-56c-3.125-3.125-8.183594-3.125-11.3125 0l-56 56c-2.285156 2.289062-2.972656 5.730469-1.734375 8.722656 1.238281 2.992188 4.160156 4.933594 7.390625 4.933594h24v160c0 4.425781 3.585938 8 8 8h48c4.417969 0 8-3.574219 8-8v-160h24c3.234375 0 6.152344-1.941406 7.394531-4.933594 1.238281-2.992187.550781-6.433594-1.738281-8.722656zm-37.65625-2.34375c-4.414062 0-8 3.578125-8 8v160h-32v-160c0-4.421875-3.582031-8-8-8h-12.6875l36.6875-36.6875 36.691406 36.6875zm0 0"/><path d="m69.65625 298.34375c-3.125-3.125-8.183594-3.125-11.3125 0l-56 56c-2.2851562 2.289062-2.972656 5.730469-1.734375 8.722656 1.238281 2.992188 4.160156 4.933594 7.390625 4.933594h24v120c0 4.425781 3.585938 8 8 8h48c4.417969 0 8-3.574219 8-8v-120h24c3.234375 0 6.152344-1.941406 7.394531-4.933594 1.238281-2.992187.550781-6.433594-1.738281-8.722656zm18.34375 53.65625c-4.414062 0-8 3.578125-8 8v120h-32v-120c0-4.421875-3.582031-8-8-8h-12.6875l36.6875-36.6875 36.691406 36.6875zm0 0"/></svg>