<svg id="Capa_1" enable-background="new 0 0 512 512" viewBox="0 0 512 512" xmlns="http://www.w3.org/2000/svg"><g><path d="m437.021 74.981c-48.352-48.352-112.64-74.981-181.019-74.981s-132.668 26.629-181.019 74.981c-48.353 48.352-74.981 112.639-74.981 181.019s26.628 132.667 74.981 181.02c48.351 48.351 112.638 74.98 181.019 74.98 68.38 0 132.667-26.629 181.019-74.98 36.033-36.033 60.277-81.397 70.111-131.189.802-4.063-1.841-8.009-5.905-8.811-4.062-.808-8.008 1.84-8.811 5.904-9.255 46.864-32.079 89.566-66.001 123.488-45.519 45.52-106.04 70.588-170.413 70.588s-124.894-25.068-170.413-70.588c-45.519-45.518-70.587-106.039-70.587-170.412 0-64.374 25.068-124.894 70.587-170.413s106.039-70.587 170.413-70.587 124.894 25.068 170.413 70.587c48.387 48.387 73.981 115.354 70.221 183.729-.228 4.136 2.941 7.673 7.077 7.9 4.117.225 7.673-2.94 7.9-7.076 3.994-72.628-23.194-143.761-74.592-195.159zm-180.141 132.058c-2.929 2.929-2.929 7.678 0 10.606 2.929 2.929 7.678 2.929 10.606 0l115.59-115.59c3.02-3.02 4.547-7.192 4.192-11.447-.357-4.275-2.57-8.156-6.07-10.648-41.083-29.249-91.6-43.172-142.241-39.193-51.218 4.02-99.407 26.216-135.691 62.5s-58.48 84.473-62.5 135.691c-3.975 50.643 9.944 101.158 39.194 142.241 2.493 3.5 6.374 5.713 10.649 6.07 4.219.353 8.428-1.168 11.446-4.192l140.742-140.742c2.929-2.929 2.929-7.678 0-10.606-2.929-2.929-7.678-2.929-10.606 0l-43.98 43.979v-76.675l97.01-46.731v26.396zm-83.668 83.668-19.473 19.473h-15.217c-2.873 0-5.21-2.337-5.21-5.21v-97.94c0-2.873 2.337-5.21 5.21-5.21h34.69zm106.544-152.424-100.757 48.537h-40.478c-11.144 0-20.21 9.066-20.21 20.21v97.94c0 11.144 9.066 20.21 20.21 20.21h.217l-46.873 46.873c-26.997-38.14-39.829-84.966-36.144-131.923 3.741-47.659 24.393-92.498 58.152-126.258s78.599-54.412 126.258-58.152c46.953-3.684 93.784 9.147 131.923 36.144l-71.833 71.833v-12.557c0-4.942-2.498-9.461-6.682-12.088-4.182-2.627-9.336-2.913-13.783-.769zm-157.196 287.571c85.645 67.393 208.694 60.364 286.177-17.119 77.301-77.302 84.661-200.331 17.119-286.177-2.542-3.23-6.36-5.224-10.476-5.468-4.14-.245-8.203 1.295-11.137 4.229l-116.753 116.752c-.046.045-.092.091-.137.137l-86.525 86.525c-.042.043-.087.084-.128.128l-79.379 79.378c-2.935 2.935-4.476 6.994-4.229 11.138.244 4.117 2.237 7.935 5.468 10.477zm162.662-164.3v98.146l-66.239-31.908zm-77.476 77.475 72.007 34.687c4.441 2.14 9.594 1.866 13.787-.768 4.184-2.628 6.682-7.146 6.682-12.088v-114.306l28.516-28.517c18.147 26.081 15.396 62.044-7.62 85.06-2.929 2.93-2.929 7.678 0 10.607 2.928 2.929 7.678 2.929 10.606 0 28.847-28.847 31.716-74.304 7.76-106.413l14.278-14.278c33.366 35.158 32.651 93.415-1.977 128.049-2.929 2.93-2.929 7.678 0 10.607 2.928 2.929 7.678 2.929 10.606 0 41.047-41.047 41.712-107.416 1.999-149.285l50.061-50.062c62.44 79.857 55.466 194.016-16.322 265.804-71.788 71.789-185.947 78.763-265.805 16.322z"/></g></svg>